<svg width="27" height="27" viewBox="0 0 27 27" fill="none" xmlns="http://www.w3.org/2000/svg">
<path d="M13.5 0C6.0558 0 0 6.0558 0 13.5C0 20.9442 6.0558 27 13.5 27C20.9442 27 27 20.9442 27 13.5C27 6.0558 20.9442 0 13.5 0ZM19.9204 20.4828C19.701 20.7022 19.413 20.8126 19.1251 20.8126C18.8371 20.8126 18.5489 20.7022 18.3297 20.4828L12.7047 14.8579C12.4931 14.6476 12.3751 14.3617 12.3751 14.0626V6.75C12.3751 6.1279 12.8789 5.62507 13.5 5.62507C14.1211 5.62507 14.6249 6.1279 14.6249 6.75V13.5968L19.9204 18.8921C20.3602 19.3321 20.3602 20.043 19.9204 20.4828Z" fill="#FFCB12"/>
</svg>
