<svg width="27" height="27" viewBox="0 0 27 27" fill="none" xmlns="http://www.w3.org/2000/svg">
<path d="M26.209 10.5996H24.4625C24.204 9.62033 23.8145 8.68345 23.2997 7.80205L24.5375 6.56427C24.6859 6.41593 24.7692 6.21475 24.7692 6.00492C24.7692 5.79509 24.6859 5.59396 24.5375 5.44562L21.5544 2.46254C21.2456 2.15367 20.7447 2.15362 20.4358 2.46254L19.1979 3.70037C18.3165 3.18553 17.3796 2.79608 16.4004 2.53753V0.791016C16.4004 0.354164 16.0462 0 15.6094 0H11.3906C10.9538 0 10.5996 0.354164 10.5996 0.791016V2.53753C9.62039 2.79608 8.68351 3.18553 7.8021 3.70037L6.56427 2.46254C6.2554 2.15367 5.75453 2.15362 5.44562 2.46254L2.46254 5.44562C2.3142 5.59396 2.23082 5.79514 2.23082 6.00492C2.23082 6.21469 2.3142 6.41587 2.46254 6.56427L3.70037 7.80205C3.18547 8.68351 2.79608 9.62033 2.53747 10.5996H0.791016C0.354164 10.5996 0 10.9538 0 11.3906V15.6094C0 16.0462 0.354164 16.4004 0.791016 16.4004H2.53747C2.79603 17.3797 3.18547 18.3165 3.70032 19.1979L2.46248 20.4357C2.31414 20.584 2.23077 20.7852 2.23077 20.995C2.23077 21.2048 2.31409 21.406 2.46248 21.5543L5.44556 24.5375C5.5939 24.6858 5.79509 24.7692 6.00486 24.7692C6.21464 24.7692 6.41582 24.6858 6.56416 24.5375L7.802 23.2996C8.6834 23.8145 9.62023 24.2039 10.5995 24.4625V26.209C10.5995 26.6458 10.9537 27 11.3905 27H15.6093C16.0461 27 16.4003 26.6458 16.4003 26.209V24.4625C17.3796 24.204 18.3164 23.8145 19.1978 23.2997L20.4356 24.5375C20.584 24.6859 20.7851 24.7692 20.9949 24.7692C21.2048 24.7692 21.4059 24.6859 21.5542 24.5375L24.5373 21.5544C24.6856 21.406 24.769 21.2049 24.769 20.9951C24.769 20.7853 24.6856 20.5841 24.5373 20.4357L23.2995 19.1979C23.8143 18.3165 24.2037 17.3797 24.4623 16.4004H26.209C26.6458 16.4004 27 16.0463 27 15.6094V11.3907C27 10.9538 26.6458 10.5996 26.209 10.5996ZM13.5 20.8828C9.42906 20.8828 6.11719 17.5709 6.11719 13.5C6.11719 9.42912 9.42912 6.11719 13.5 6.11719C17.5709 6.11719 20.8828 9.42912 20.8828 13.5C20.8828 17.5709 17.5709 20.8828 13.5 20.8828Z" fill="#FFCB12"/>
<path d="M16.6641 9.54492H14.291V11.127C14.291 11.5638 13.9369 11.918 13.5 11.918C13.0631 11.918 12.709 11.5638 12.709 11.127V9.54492H10.3359C9.89909 9.54492 9.54492 9.89909 9.54492 10.3359V16.6641C9.54492 17.1009 9.89909 17.4551 10.3359 17.4551H16.6641C17.1009 17.4551 17.4551 17.1009 17.4551 16.6641V10.3359C17.4551 9.89909 17.1009 9.54492 16.6641 9.54492Z" fill="#FFCB12"/>
</svg>
