<svg width="22" height="22" viewBox="0 0 22 22" fill="none" xmlns="http://www.w3.org/2000/svg">
<path d="M18.3026 3.82512C16.6231 1.39438 13.9613 0 11.0003 0C8.03926 0 5.37748 1.39438 3.69796 3.82512C2.02669 6.24357 1.64078 9.3054 2.66361 12.0105C2.93719 12.7492 3.37208 13.4669 3.9531 14.1395L10.4147 21.7292C10.5608 21.901 10.7749 22 11.0003 22C11.2257 22 11.4398 21.901 11.5859 21.7292L18.0457 14.1415C18.6293 13.4651 19.0636 12.7482 19.3349 12.0154C20.3598 9.3054 19.9739 6.24357 18.3026 3.82512ZM17.8944 11.4767C17.6852 12.042 17.3436 12.601 16.8798 13.1387C16.8785 13.14 16.8772 13.1413 16.8762 13.1428L11.0003 20.0444L5.12078 13.1385C4.65719 12.6013 4.31563 12.0423 4.10435 11.4715C3.25847 9.23437 3.57949 6.70282 4.96334 4.70001C6.35153 2.69079 8.55205 1.53845 11.0003 1.53845C13.4485 1.53845 15.6487 2.69075 17.037 4.70001C18.4211 6.70282 18.7423 9.23437 17.8944 11.4767Z" fill="#FFCB12"/>
<path d="M11.0003 4.56421C8.62519 4.56421 6.69263 6.49651 6.69263 8.87191C6.69263 11.2473 8.62493 13.1796 11.0003 13.1796C13.3757 13.1796 15.308 11.2473 15.308 8.87191C15.308 6.49677 13.3755 4.56421 11.0003 4.56421ZM11.0003 11.6411C9.47339 11.6411 8.23108 10.3988 8.23108 8.87187C8.23108 7.34493 9.47339 6.10262 11.0003 6.10262C12.5273 6.10262 13.7696 7.34493 13.7696 8.87187C13.7696 10.3988 12.5273 11.6411 11.0003 11.6411Z" fill="#FFCB12"/>
</svg>
