<svg width="26" height="26" viewBox="0 0 26 26" fill="none" xmlns="http://www.w3.org/2000/svg">
<path d="M25.992 11.5417V11.5415C25.9495 11.1364 25.7396 10.7631 25.4163 10.5157L23.9365 9.36363L24.4927 7.52836C24.6113 7.13679 24.5622 6.70891 24.3576 6.35424C24.1529 5.99976 23.807 5.74327 23.4085 5.65004L21.5468 5.21542L21.3092 3.31865C21.2582 2.9124 21.0392 2.54146 20.7083 2.30144C20.3771 2.06042 19.9563 1.9666 19.5546 2.04396L17.6771 2.40399L16.6883 0.76768C16.2947 0.116447 15.4683 -0.129526 14.7665 0.195C14.7171 0.217812 14.6695 0.245186 14.628 0.274544L12.9985 1.40959L11.4296 0.316796C11.0938 0.0831218 10.6718 -0.00197683 10.2715 0.0829234C9.87125 0.167824 9.52014 0.417764 9.30849 0.768076L8.32003 2.40419L6.44231 2.04396C6.04023 1.96699 5.61989 2.06082 5.28922 2.30124C4.95795 2.54186 4.73895 2.9128 4.68817 3.31865L4.45053 5.21562L2.48156 5.67523L2.38912 5.70538L2.355 5.72026C1.6397 6.03308 1.28185 6.79361 1.50441 7.52836L2.06043 9.36363L0.517151 10.5641L0.427689 10.6419L0.402496 10.6695C-0.115434 11.2352 -0.135668 12.091 0.354294 12.663L1.56253 14.1079L0.583207 15.8851L0.544129 15.974L0.532822 16.0071C0.288635 16.7369 0.621293 17.5299 1.30645 17.8515L3.03698 18.6636L2.87492 20.5683C2.8402 20.9763 2.97747 21.3848 3.25121 21.6887C3.52496 21.9927 3.91673 22.1719 4.32615 22.1802L6.2374 22.2183L6.86423 24.024C6.99833 24.4108 7.28973 24.7282 7.66345 24.8944C8.03716 25.0609 8.46782 25.0652 8.8455 24.9063L10.6072 24.1638L11.99 25.6395L12.0624 25.704L12.0904 25.7248C12.3635 25.9265 12.6827 26.0253 12.9989 26.0253C13.399 26.0253 13.7941 25.867 14.0831 25.5586L15.3904 24.1638L17.1522 24.9065C17.5291 25.0652 17.9596 25.0609 18.3333 24.8946C18.7074 24.7282 18.9988 24.4108 19.1329 24.0242L19.7599 22.2183L21.7817 22.178L21.8777 22.1675L21.9122 22.1606C22.666 22.0068 23.1863 21.3223 23.1222 20.5685L22.9604 18.6636L24.6911 17.8515C25.0614 17.6777 25.3465 17.3548 25.473 16.9654C25.5994 16.5762 25.5587 16.1473 25.3612 15.7889L24.4348 14.1079L25.6432 12.663C25.9073 12.3546 26.0344 11.9463 25.992 11.5417ZM13.0794 19.514C9.50943 19.514 6.60497 16.6095 6.60497 13.0395C6.60497 9.46936 9.50943 6.5651 13.0794 6.5651C16.6496 6.5651 19.554 9.46936 19.554 13.0395C19.554 16.6095 16.6494 19.514 13.0794 19.514Z" fill="#FFCB12"/>
<path d="M13.0794 8.08936C10.3501 8.08936 8.12939 10.3099 8.12939 13.0393C8.12939 15.7686 10.3501 17.9891 13.0794 17.9891C15.8089 17.9891 18.0294 15.7686 18.0294 13.0393C18.0294 10.3099 15.8089 8.08936 13.0794 8.08936ZM16.0184 12.107L12.472 15.6532C12.3232 15.8022 12.1282 15.8766 11.933 15.8766C11.7381 15.8766 11.5429 15.8022 11.3941 15.6532L10.0391 14.2982C9.74131 14.0004 9.74131 13.5178 10.0391 13.2201C10.3366 12.9225 10.8192 12.9225 11.117 13.2201L11.9332 14.0363L14.9405 11.0291C15.238 10.7314 15.7208 10.7314 16.0184 11.0291C16.3161 11.3267 16.3161 11.8093 16.0184 12.107Z" fill="#FFCB12"/>
</svg>
